<svg xmlns="http://www.w3.org/2000/svg" viewBox="0 0 48 48"><defs><radialGradient id="a" cx="50%" cy="50%" r="60%"><stop offset="0%" stop-color="#2c0085"/><stop offset="100%" stop-color="#190050"/></radialGradient><filter id="b" width="140%" height="140%" x="-20%" y="-20%"><feGaussianBlur result="blur" stdDeviation=".6"/><feComposite in="SourceGraphic" in2="blur"/></filter></defs><rect width="48" height="48" fill="url(#a)" rx="10"/><rect width="48" height="48" fill="none" stroke="rgba(255,255,255,0.08)" stroke-width=".75" rx="10"/><g filter="url(#b)"><path fill="#25589d" d="M21 8h1v1h-1z"/><path fill="#2dc5e5" d="M22 8h1v1h-1z"/><path fill="#2dc6e7" d="M23 8h2v1h-2z"/><path fill="#2dc2e5" d="M25 8h1v1h-1z"/><path fill="#26579d" d="M26 8h1v1h-1z"/><path fill="#2cbfe1" d="M21 9h1v1h-1z"/><path fill="#30e8ff" d="M22 9h1v1h-1z"/><path fill="#30e7ff" d="M23 9h1v1h-1z"/><path fill="#30e5ff" d="M24 9h1v1h-1z"/><path fill="#30e4ff" d="M25 9h1v1h-1z"/><path fill="#2cbbe2" d="M26 9h1v1h-1z"/><path fill="#200e6b" d="M20 10h1v1h-1z"/><path fill="#2fe1fa" d="M21 10h1v1h-1z"/><path fill="#2fe6ff" d="M22 10h1v1h-1z"/><path fill="#2fe5ff" d="M23 10h1v1h-1z"/><path fill="#2fe3ff" d="M24 10h1v1h-1z"/><path fill="#2fe1ff" d="M25 10h1v1h-1z"/><path fill="#2fd9fa" d="M26 10h1v1h-1z"/><path fill="#200f6c" d="M27 10h1v1h-1z"/><path fill="#211e76" d="M13 11h1v1h-1z"/><path fill="#2aa9d2" d="M14 11h1v1h-1z"/><path fill="#25589c" d="M15 11h1v1h-1z"/><path fill="#21116e" d="M19 11h1v1h-1z"/><path fill="#2774b0" d="M20 11h1v1h-1z"/><path fill="#2ee4ff" d="M21 11h2v1h-2z"/><path fill="#2ee3ff" d="M23 11h1v1h-1z"/><path fill="#2fe0ff" d="M24 11h1v1h-1z"/><path fill="#2fdeff" d="M25 11h1v1h-1z"/><path fill="#2fdcff" d="M26 11h1v1h-1z"/><path fill="#2772b2" d="M27 11h1v1h-1z"/><path fill="#21116f" d="M28 11h1v1h-1z"/><path fill="#2755a2" d="M32 11h1v1h-1z"/><path fill="#2c96d5" d="M33 11h1v1h-1z"/><path fill="#23207b" d="M34 11h1v1h-1z"/><path fill="#201772" d="M12 12h1v1h-1z"/><path fill="#29a5d0" d="M13 12h1v1h-1z"/><path fill="#2debfe" d="M14 12h1v1h-1z"/><path fill="#2de6fc" d="M15 12h1v1h-1z"/><path fill="#299cca" d="M16 12h1v1h-1z"/><path fill="#222b80" d="M17 12h1v1h-1z"/><path fill="#2673ae" d="M18 12h1v1h-1z"/><path fill="#2cd1f0" d="M19 12h1v1h-1z"/><path fill="#2ee4ff" d="M20 12h1v1h-1z"/><path fill="#2de3ff" d="M21 12h1v1h-1z"/><path fill="#2de1ff" d="M22 12h1v1h-1z"/><path fill="#2edfff" d="M23 12h1v1h-1z"/><path fill="#2fddff" d="M24 12h1v1h-1z"/><path fill="#2fdaff" d="M25 12h1v1h-1z"/><path fill="#2fd8ff" d="M26 12h1v1h-1z"/><path fill="#2fd5ff" d="M27 12h1v1h-1z"/><path fill="#2ec0f0" d="M28 12h1v1h-1z"/><path fill="#2867ae" d="M29 12h1v1h-1z"/><path fill="#222680" d="M30 12h1v1h-1z"/><path fill="#2a89cb" d="M31 12h1v1h-1z"/><path fill="#30c5fd" d="M32 12h1v1h-1z"/><path fill="#31c6ff" d="M33 12h1v1h-1z"/><path fill="#2d8fd4" d="M34 12h1v1h-1z"/><path fill="#221674" d="M35 12h1v1h-1z"/><path fill="#21146f" d="M11 13h1v1h-1z"/><path fill="#289fcb" d="M12 13h1v1h-1z"/><path fill="#2de9fd" d="M13 13h1v1h-1z"/><path fill="#2debff" d="M14 13h1v1h-1z"/><path fill="#2de9ff" d="M15 13h2v1h-2z"/><path fill="#2cdef7" d="M17 13h1v1h-1z"/><path fill="#2de6ff" d="M18 13h1v1h-1z"/><path fill="#2ce3ff" d="M19 13h1v1h-1z"/><path fill="#2ce1ff" d="M20 13h1v1h-1z"/><path fill="#2ddfff" d="M21 13h1v1h-1z"/><path fill="#2cddff" d="M22 13h1v1h-1z"/><path fill="#2ddbff" d="M23 13h1v1h-1z"/><path fill="#2ed9ff" d="M24 13h1v1h-1z"/><path fill="#2fd6ff" d="M25 13h1v1h-1z"/><path fill="#2fd3ff" d="M26 13h1v1h-1z"/><path fill="#2fd1ff" d="M27 13h1v1h-1z"/><path fill="#2fceff" d="M28 13h1v1h-1z"/><path fill="#2fcbff" d="M29 13h1v1h-1z"/><path fill="#30c2fa" d="M30 13h1v1h-1z"/><path fill="#30c6ff" d="M31 13h1v1h-1z"/><path fill="#30c3ff" d="M32 13h1v1h-1z"/><path fill="#30c0ff" d="M33 13h1v1h-1z"/><path fill="#31bdfe" d="M34 13h1v1h-1z"/><path fill="#2d87d1" d="M35 13h1v1h-1z"/><path fill="#221573" d="M36 13h1v1h-1z"/><path fill="#2684b8" d="M11 14h1v1h-1z"/><path fill="#2de9fe" d="M12 14h1v1h-1z"/><path fill="#2deaff" d="M13 14h1v1h-1z"/><path fill="#2de9ff" d="M14 14h1v1h-1z"/><path fill="#2de8ff" d="M15 14h1v1h-1z"/><path fill="#2de6ff" d="M16 14h1v1h-1z"/><path fill="#2ce5ff" d="M17 14h1v1h-1z"/><path fill="#2ce3ff" d="M18 14h1v1h-1z"/><path fill="#2ce0ff" d="M19 14h1v1h-1z"/><path fill="#2cddfe" d="M20 14h1v1h-1z"/><path fill="#29b1dd" d="M21 14h1v1h-1z"/><path fill="#247eb7" d="M22 14h1v1h-1z"/><path fill="#2262a1" d="M23 14h1v1h-1z"/><path fill="#2360a0" d="M24 14h1v1h-1z"/><path fill="#2579b6" d="M25 14h1v1h-1z"/><path fill="#2aa9df" d="M26 14h1v1h-1z"/><path fill="#2ecbfe" d="M27 14h1v1h-1z"/><path fill="#2fc9ff" d="M28 14h1v1h-1z"/><path fill="#30c6ff" d="M29 14h1v1h-1z"/><path fill="#30c3ff" d="M30 14h1v1h-1z"/><path fill="#30c0ff" d="M31 14h1v1h-1z"/><path fill="#31bdff" d="M32 14h1v1h-1z"/><path fill="#32baff" d="M33 14h1v1h-1z"/><path fill="#32b8fe" d="M34 14h1v1h-1z"/><path fill="#32b5fd" d="M35 14h1v1h-1z"/><path fill="#2b6dc0" d="M36 14h1v1h-1z"/><path fill="#213f8a" d="M11 15h1v1h-1z"/><path fill="#2ce0f9" d="M12 15h1v1h-1z"/><path fill="#2de7ff" d="M13 15h1v1h-1z"/><path fill="#2de6ff" d="M14 15h1v1h-1z"/><path fill="#2de4ff" d="M15 15h1v1h-1z"/><path fill="#2be3ff" d="M16 15h1v1h-1z"/><path fill="#2be1ff" d="M17 15h1v1h-1z"/><path fill="#2ad2f5" d="M18 15h1v1h-1z"/><path fill="#2690c4" d="M19 15h1v1h-1z"/><path fill="#1d2573" d="M20 15h1v1h-1z"/><path fill="#1e2576" d="M27 15h1v1h-1z"/><path fill="#2884c7" d="M28 15h1v1h-1z"/><path fill="#2fb6f6" d="M29 15h1v1h-1z"/><path fill="#31bdff" d="M30 15h1v1h-1z"/><path fill="#31baff" d="M31 15h1v1h-1z"/><path fill="#32b8ff" d="M32 15h1v1h-1z"/><path fill="#32b5ff" d="M33 15h1v1h-1z"/><path fill="#32b1ff" d="M34 15h1v1h-1z"/><path fill="#31a8f9" d="M35 15h1v1h-1z"/><path fill="#242d88" d="M36 15h1v1h-1z"/><path fill="#2478af" d="M12 16h1v1h-1z"/><path fill="#2ce2fd" d="M13 16h1v1h-1z"/><path fill="#2ce2ff" d="M14 16h1v1h-1z"/><path fill="#2be0ff" d="M15 16h1v1h-1z"/><path fill="#2bdfff" d="M16 16h1v1h-1z"/><path fill="#29bce6" d="M17 16h1v1h-1z"/><path fill="#1f498f" d="M18 16h1v1h-1z"/><path fill="#214191" d="M29 16h1v1h-1z"/><path fill="#2da0e8" d="M30 16h1v1h-1z"/><path fill="#31b5ff" d="M31 16h1v1h-1z"/><path fill="#32b2ff" d="M32 16h1v1h-1z"/><path fill="#32aeff" d="M33 16h1v1h-1z"/><path fill="#32a9fe" d="M34 16h1v1h-1z"/><path fill="#285fb6" d="M35 16h1v1h-1z"/><path fill="#1e2577" d="M12 17h1v1h-1z"/><path fill="#2ad7f7" d="M13 17h1v1h-1z"/><path fill="#2adfff" d="M14 17h1v1h-1z"/><path fill="#2bdcff" d="M15 17h1v1h-1z"/><path fill="#29bce7" d="M16 17h1v1h-1z"/><path fill="#1d2b79" d="M17 17h1v1h-1z"/><path fill="#1e267c" d="M30 17h1v1h-1z"/><path fill="#2e99e9" d="M31 17h1v1h-1z"/><path fill="#32abff" d="M32 17h1v1h-1z"/><path fill="#32a7ff" d="M33 17h1v1h-1z"/><path fill="#329ff9" d="M34 17h1v1h-1z"/><path fill="#201f7a" d="M35 17h1v1h-1z"/><path fill="#2471ae" d="M12 18h1v1h-1z"/><path fill="#2bdcff" d="M13 18h1v1h-1z"/><path fill="#2bdbff" d="M14 18h1v1h-1z"/><path fill="#2acef7" d="M15 18h1v1h-1z"/><path fill="#214e95" d="M16 18h1v1h-1z"/><path fill="#2469ab" d="M26 18h1v1h-1z"/><path fill="#2697d0" d="M27 18h1v1h-1z"/><path fill="#2693d0" d="M28 18h1v1h-1z"/><path fill="#2461aa" d="M29 18h1v1h-1z"/><path fill="#233f96" d="M31 18h1v1h-1z"/><path fill="#319ff7" d="M32 18h1v1h-1z"/><path fill="#32a2ff" d="M33 18h1v1h-1z"/><path fill="#339dff" d="M34 18h1v1h-1z"/><path fill="#2a5aba" d="M35 18h1v1h-1z"/><path fill="#20106c" d="M11 19h1v1h-1z"/><path fill="#29c6ef" d="M12 19h1v1h-1z"/><path fill="#2bd9ff" d="M13 19h1v1h-1z"/><path fill="#2ad6ff" d="M14 19h1v1h-1z"/><path fill="#2695cd" d="M15 19h1v1h-1z"/><path fill="#2696d0" d="M26 19h1v1h-1z"/><path fill="#29caff" d="M27 19h1v1h-1z"/><path fill="#29c3ff" d="M28 19h1v1h-1z"/><path fill="#278ed5" d="M29 19h1v1h-1z"/><path fill="#2b74d1" d="M32 19h1v1h-1z"/><path fill="#339bff" d="M33 19h1v1h-1z"/><path fill="#3496fe" d="M34 19h1v1h-1z"/><path fill="#3287f2" d="M35 19h1v1h-1z"/><path fill="#200a6b" d="M36 19h1v1h-1z"/><path fill="#223387" d="M10 20h1v1h-1z"/><path fill="#2680bd" d="M11 20h1v1h-1z"/><path fill="#2ad6ff" d="M12 20h1v1h-1z"/><path fill="#2ad5ff" d="M13 20h1v1h-1z"/><path fill="#29d3fe" d="M14 20h1v1h-1z"/><path fill="#1f3381" d="M15 20h1v1h-1z"/><path fill="#2591d1" d="M26 20h1v1h-1z"/><path fill="#28c1ff" d="M27 20h1v1h-1z"/><path fill="#29bcff" d="M28 20h1v1h-1z"/><path fill="#2788d5" d="M29 20h1v1h-1z"/><path fill="#222a87" d="M32 20h1v1h-1z"/><path fill="#3394fe" d="M33 20h1v1h-1z"/><path fill="#3490fd" d="M34 20h1v1h-1z"/><path fill="#358bfe" d="M35 20h1v1h-1z"/><path fill="#2e54c3" d="M36 20h1v1h-1z"/><path fill="#251e86" d="M37 20h1v1h-1z"/><path fill="#2463a9" d="M8 21h1v1H8z"/><path fill="#28cef8" d="M9 21h1v1H9z"/><path fill="#29d5ff" d="M10 21h1v1h-1z"/><path fill="#29d4ff" d="M11 21h1v1h-1z"/><path fill="#2ad2ff" d="M12 21h1v1h-1z"/><path fill="#29d0ff" d="M13 21h1v1h-1z"/><path fill="#29b8ed" d="M14 21h1v1h-1z"/><path fill="#20116e" d="M21 21h1v1h-1z"/><path fill="#2478b7" d="M22 21h1v1h-1z"/><path fill="#2481bf" d="M23 21h1v1h-1z"/><path fill="#2377b9" d="M24 21h1v1h-1z"/><path fill="#1e2277" d="M25 21h1v1h-1z"/><path fill="#248cd0" d="M26 21h1v1h-1z"/><path fill="#28b9ff" d="M27 21h1v1h-1z"/><path fill="#29b3ff" d="M28 21h1v1h-1z"/><path fill="#2882d5" d="M29 21h1v1h-1z"/><path fill="#3182f0" d="M33 21h1v1h-1z"/><path fill="#3589fe" d="M34 21h1v1h-1z"/><path fill="#3684fd" d="M35 21h1v1h-1z"/><path fill="#3780fe" d="M36 21h1v1h-1z"/><path fill="#397bfe" d="M37 21h1v1h-1z"/><path fill="#3a71f5" d="M38 21h1v1h-1z"/><path fill="#2e33a8" d="M39 21h1v1h-1z"/><path fill="#25a0d5" d="M8 22h1v1H8z"/><path fill="#29d2ff" d="M9 22h1v1H9z"/><path fill="#29d1ff" d="M10 22h1v1h-1z"/><path fill="#29cfff" d="M11 22h1v1h-1z"/><path fill="#2acdff" d="M12 22h1v1h-1z"/><path fill="#2acaff" d="M13 22h1v1h-1z"/><path fill="#2589ca" d="M14 22h1v1h-1z"/><path fill="#201d76" d="M21 22h1v1h-1z"/><path fill="#27c3f3" d="M22 22h1v1h-1z"/><path fill="#26cdff" d="M23 22h1v1h-1z"/><path fill="#26bef6" d="M24 22h1v1h-1z"/><path fill="#204191" d="M25 22h1v1h-1z"/><path fill="#2484d0" d="M26 22h1v1h-1z"/><path fill="#28b1fe" d="M27 22h1v1h-1z"/><path fill="#2aaaff" d="M28 22h1v1h-1z"/><path fill="#287bd5" d="M29 22h1v1h-1z"/><path fill="#2d5fce" d="M33 22h1v1h-1z"/><path fill="#3682fd" d="M34 22h1v1h-1z"/><path fill="#377dfe" d="M35 22h1v1h-1z"/><path fill="#3979fe" d="M36 22h1v1h-1z"/><path fill="#3b74fe" d="M37 22h1v1h-1z"/><path fill="#3d6ffe" d="M38 22h1v1h-1z"/><path fill="#3850d6" d="M39 22h1v1h-1z"/><path fill="#259ed6" d="M8 23h1v1H8z"/><path fill="#2aceff" d="M9 23h1v1H9z"/><path fill="#2accff" d="M10 23h1v1h-1z"/><path fill="#2ac9ff" d="M11 23h1v1h-1z"/><path fill="#29c7ff" d="M12 23h1v1h-1z"/><path fill="#29c5ff" d="M13 23h1v1h-1z"/><path fill="#246eb7" d="M14 23h1v1h-1z"/><path fill="#1f1b74" d="M21 23h1v1h-1z"/><path fill="#26baf2" d="M22 23h1v1h-1z"/><path fill="#25c4ff" d="M23 23h1v1h-1z"/><path fill="#25b5f7" d="M24 23h1v1h-1z"/><path fill="#203e91" d="M25 23h1v1h-1z"/><path fill="#257dd0" d="M26 23h1v1h-1z"/><path fill="#28a7fe" d="M27 23h1v1h-1z"/><path fill="#2aa0fe" d="M28 23h1v1h-1z"/><path fill="#2974d5" d="M29 23h1v1h-1z"/><path fill="#2b4bbd" d="M33 23h1v1h-1z"/><path fill="#377bfe" d="M34 23h1v1h-1z"/><path fill="#3976fe" d="M35 23h1v1h-1z"/><path fill="#3b71fe" d="M36 23h1v1h-1z"/><path fill="#3d6dfe" d="M37 23h1v1h-1z"/><path fill="#3f68fd" d="M38 23h1v1h-1z"/><path fill="#3a4cd6" d="M39 23h1v1h-1z"/><path fill="#259ad5" d="M8 24h1v1H8z"/><path fill="#2ac8ff" d="M9 24h1v1H9z"/><path fill="#29c6ff" d="M10 24h1v1h-1z"/><path fill="#29c3ff" d="M11 24h1v1h-1z"/><path fill="#2ac1ff" d="M12 24h1v1h-1z"/><path fill="#29beff" d="M13 24h1v1h-1z"/><path fill="#246eba" d="M14 24h1v1h-1z"/><path fill="#225ba0" d="M17 24h1v1h-1z"/><path fill="#26c7ef" d="M18 24h1v1h-1z"/><path fill="#26c3ef" d="M19 24h1v1h-1z"/><path fill="#2499d0" d="M20 24h1v1h-1z"/><path fill="#1d1a73" d="M21 24h1v1h-1z"/><path fill="#25b2f3" d="M22 24h1v1h-1z"/><path fill="#25baff" d="M23 24h1v1h-1z"/><path fill="#26acf6" d="M24 24h1v1h-1z"/><path fill="#1f3a91" d="M25 24h1v1h-1z"/><path fill="#2575cf" d="M26 24h1v1h-1z"/><path fill="#299dfe" d="M27 24h1v1h-1z"/><path fill="#2b96ff" d="M28 24h1v1h-1z"/><path fill="#296dd5" d="M29 24h1v1h-1z"/><path fill="#2d48bf" d="M33 24h1v1h-1z"/><path fill="#3a72fd" d="M34 24h1v1h-1z"/><path fill="#3c6ffd" d="M35 24h1v1h-1z"/><path fill="#3d6afe" d="M36 24h1v1h-1z"/><path fill="#3f66fd" d="M37 24h1v1h-1z"/><path fill="#4162fd" d="M38 24h1v1h-1z"/><path fill="#3a47d5" d="M39 24h1v1h-1z"/><path fill="#258acb" d="M8 25h1v1H8z"/><path fill="#29c3ff" d="M9 25h1v1H9z"/><path fill="#29c1ff" d="M10 25h1v1h-1z"/><path fill="#29bdff" d="M11 25h1v1h-1z"/><path fill="#29baff" d="M12 25h1v1h-1z"/><path fill="#29b7ff" d="M13 25h1v1h-1z"/><path fill="#2682d1" d="M14 25h1v1h-1z"/><path fill="#2265a8" d="M17 25h1v1h-1z"/><path fill="#27d1ff" d="M18 25h1v1h-1z"/><path fill="#26cdff" d="M19 25h1v1h-1z"/><path fill="#24a3de" d="M20 25h1v1h-1z"/><path fill="#1d1972" d="M21 25h1v1h-1z"/><path fill="#25aaf2" d="M22 25h1v1h-1z"/><path fill="#26b1fe" d="M23 25h1v1h-1z"/><path fill="#26a3f6" d="M24 25h1v1h-1z"/><path fill="#203790" d="M25 25h1v1h-1z"/><path fill="#266dd0" d="M26 25h1v1h-1z"/><path fill="#2b93fe" d="M27 25h1v1h-1z"/><path fill="#2d8cfd" d="M28 25h1v1h-1z"/><path fill="#2a65d5" d="M29 25h1v1h-1z"/><path fill="#3352d4" d="M33 25h1v1h-1z"/><path fill="#3c6bfd" d="M34 25h1v1h-1z"/><path fill="#3e68fd" d="M35 25h1v1h-1z"/><path fill="#3f64fd" d="M36 25h1v1h-1z"/><path fill="#4160fd" d="M37 25h1v1h-1z"/><path fill="#445bfd" d="M38 25h1v1h-1z"/><path fill="#393ecc" d="M39 25h1v1h-1z"/><path fill="#1e1770" d="M8 26h1v1H8z"/><path fill="#215aa5" d="M9 26h1v1H9z"/><path fill="#268fd5" d="M10 26h1v1h-1z"/><path fill="#29b3fa" d="M11 26h1v1h-1z"/><path fill="#2ab4ff" d="M12 26h1v1h-1z"/><path fill="#2ab0ff" d="M13 26h1v1h-1z"/><path fill="#29a3f4" d="M14 26h1v1h-1z"/><path fill="#2161a8" d="M17 26h1v1h-1z"/><path fill="#26c9fe" d="M18 26h1v1h-1z"/><path fill="#26c4ff" d="M19 26h1v1h-1z"/><path fill="#249cde" d="M20 26h1v1h-1z"/><path fill="#1d1771" d="M21 26h1v1h-1z"/><path fill="#25a0f2" d="M22 26h1v1h-1z"/><path fill="#27a7fe" d="M23 26h1v1h-1z"/><path fill="#2799f6" d="M24 26h1v1h-1z"/><path fill="#203490" d="M25 26h1v1h-1z"/><path fill="#2767cf" d="M26 26h1v1h-1z"/><path fill="#2e89fd" d="M27 26h1v1h-1z"/><path fill="#2f82fe" d="M28 26h1v1h-1z"/><path fill="#2d5dd4" d="M29 26h1v1h-1z"/><path fill="#3b63f6" d="M33 26h1v1h-1z"/><path fill="#3e64fd" d="M34 26h1v1h-1z"/><path fill="#4062fe" d="M35 26h1v1h-1z"/><path fill="#405df8" d="M36 26h1v1h-1z"/><path fill="#3844d0" d="M37 26h1v1h-1z"/><path fill="#2e29a4" d="M38 26h1v1h-1z"/><path fill="#210b71" d="M39 26h1v1h-1z"/><path fill="#1e287b" d="M11 27h1v1h-1z"/><path fill="#2aabfc" d="M12 27h1v1h-1z"/><path fill="#2aaafe" d="M13 27h1v1h-1z"/><path fill="#2ba5fe" d="M14 27h1v1h-1z"/><path fill="#233c99" d="M15 27h1v1h-1z"/><path fill="#215ea7" d="M17 27h1v1h-1z"/><path fill="#26c0ff" d="M18 27h1v1h-1z"/><path fill="#26bbff" d="M19 27h1v1h-1z"/><path fill="#2495de" d="M20 27h1v1h-1z"/><path fill="#1e1671" d="M21 27h1v1h-1z"/><path fill="#2797f2" d="M22 27h1v1h-1z"/><path fill="#279dfe" d="M23 27h1v1h-1z"/><path fill="#288ff6" d="M24 27h1v1h-1z"/><path fill="#213191" d="M25 27h1v1h-1z"/><path fill="#295fcf" d="M26 27h1v1h-1z"/><path fill="#307ffe" d="M27 27h1v1h-1z"/><path fill="#3278fe" d="M28 27h1v1h-1z"/><path fill="#2e58d4" d="M29 27h1v1h-1z"/><path fill="#2b279d" d="M32 27h1v1h-1z"/><path fill="#3f60fd" d="M33 27h1v1h-1z"/><path fill="#415efe" d="M34 27h1v1h-1z"/><path fill="#425cfc" d="M35 27h1v1h-1z"/><path fill="#241984" d="M36 27h1v1h-1z"/><path fill="#2782d9" d="M12 28h1v1h-1z"/><path fill="#2ba2fe" d="M13 28h1v1h-1z"/><path fill="#2c9fff" d="M14 28h1v1h-1z"/><path fill="#2a7ee0" d="M15 28h1v1h-1z"/><path fill="#201070" d="M16 28h1v1h-1z"/><path fill="#2252a2" d="M17 28h1v1h-1z"/><path fill="#26b6fe" d="M18 28h1v1h-1z"/><path fill="#26b2fe" d="M19 28h1v1h-1z"/><path fill="#258edd" d="M20 28h1v1h-1z"/><path fill="#1e1571" d="M21 28h1v1h-1z"/><path fill="#288df2" d="M22 28h1v1h-1z"/><path fill="#2893fe" d="M23 28h1v1h-1z"/><path fill="#2a86f5" d="M24 28h1v1h-1z"/><path fill="#222d90" d="M25 28h1v1h-1z"/><path fill="#2b59cf" d="M26 28h1v1h-1z"/><path fill="#3275fe" d="M27 28h1v1h-1z"/><path fill="#3470fe" d="M28 28h1v1h-1z"/><path fill="#3050d2" d="M29 28h1v1h-1z"/><path fill="#230a72" d="M31 28h1v1h-1z"/><path fill="#3a4de1" d="M32 28h1v1h-1z"/><path fill="#415bfe" d="M33 28h1v1h-1z"/><path fill="#4358fe" d="M34 28h1v1h-1z"/><path fill="#3c48e0" d="M35 28h1v1h-1z"/><path fill="#20338d" d="M12 29h1v1h-1z"/><path fill="#2c9afd" d="M13 29h1v1h-1z"/><path fill="#2d98ff" d="M14 29h1v1h-1z"/><path fill="#2d91fb" d="M15 29h1v1h-1z"/><path fill="#264aaf" d="M16 29h1v1h-1z"/><path fill="#1e0f6b" d="M17 29h1v1h-1z"/><path fill="#1c1c71" d="M18 29h1v1h-1z"/><path fill="#1c1b70" d="M19 29h1v1h-1z"/><path fill="#1d166d" d="M20 29h1v1h-1z"/><path fill="#1d166f" d="M22 29h1v1h-1z"/><path fill="#1c1770" d="M23 29h1v1h-1z"/><path fill="#1d1470" d="M24 29h1v1h-1z"/><path fill="#1e0e6b" d="M26 29h1v1h-1z"/><path fill="#1e1270" d="M27 29h1v1h-1z"/><path fill="#1e1171" d="M28 29h1v1h-1z"/><path fill="#1f0c6c" d="M29 29h1v1h-1z"/><path fill="#312fb2" d="M31 29h1v1h-1z"/><path fill="#4156fb" d="M32 29h1v1h-1z"/><path fill="#4355fe" d="M33 29h1v1h-1z"/><path fill="#4552fd" d="M34 29h1v1h-1z"/><path fill="#291e93" d="M35 29h1v1h-1z"/><path fill="#20207e" d="M12 30h1v1h-1z"/><path fill="#2d8ef8" d="M13 30h1v1h-1z"/><path fill="#2d91fe" d="M14 30h1v1h-1z"/><path fill="#2d8dfd" d="M15 30h1v1h-1z"/><path fill="#2e83f6" d="M16 30h1v1h-1z"/><path fill="#243198" d="M17 30h1v1h-1z"/><path fill="#2c219b" d="M30 30h1v1h-1z"/><path fill="#4151f7" d="M31 30h1v1h-1z"/><path fill="#4451fd" d="M32 30h1v1h-1z"/><path fill="#464ffd" d="M33 30h1v1h-1z"/><path fill="#464af9" d="M34 30h1v1h-1z"/><path fill="#261280" d="M35 30h1v1h-1z"/><path fill="#20096a" d="M11 31h1v1h-1z"/><path fill="#2a6dd7" d="M12 31h1v1h-1z"/><path fill="#2e8dfe" d="M13 31h1v1h-1z"/><path fill="#2e89fd" d="M14 31h1v1h-1z"/><path fill="#3086fe" d="M15 31h1v1h-1z"/><path fill="#3083fe" d="M16 31h1v1h-1z"/><path fill="#3179f7" d="M17 31h1v1h-1z"/><path fill="#2a41b5" d="M18 31h1v1h-1z"/><path fill="#211074" d="M19 31h1v1h-1z"/><path fill="#240c76" d="M28 31h1v1h-1z"/><path fill="#332fb7" d="M29 31h1v1h-1z"/><path fill="#424ef8" d="M30 31h1v1h-1z"/><path fill="#454efd" d="M31 31h1v1h-1z"/><path fill="#474cfe" d="M32 31h1v1h-1z"/><path fill="#4949fe" d="M33 31h1v1h-1z"/><path fill="#4b46fe" d="M34 31h1v1h-1z"/><path fill="#4236db" d="M35 31h1v1h-1z"/><path fill="#22046c" d="M36 31h1v1h-1z"/><path fill="#2846af" d="M11 32h1v1h-1z"/><path fill="#2f89fd" d="M12 32h1v1h-1z"/><path fill="#2f86fd" d="M13 32h1v1h-1z"/><path fill="#3082fe" d="M14 32h1v1h-1z"/><path fill="#317ffe" d="M15 32h1v1h-1z"/><path fill="#327bfe" d="M16 32h1v1h-1z"/><path fill="#3377fe" d="M17 32h1v1h-1z"/><path fill="#3471fc" d="M18 32h1v1h-1z"/><path fill="#335ee7" d="M19 32h1v1h-1z"/><path fill="#2c36b0" d="M20 32h1v1h-1z"/><path fill="#241079" d="M21 32h1v1h-1z"/><path fill="#250e7a" d="M26 32h1v1h-1z"/><path fill="#322bb1" d="M27 32h1v1h-1z"/><path fill="#3f45e8" d="M28 32h1v1h-1z"/><path fill="#444cfb" d="M29 32h1v1h-1z"/><path fill="#464bfd" d="M30 32h1v1h-1z"/><path fill="#4849fe" d="M31 32h1v1h-1z"/><path fill="#4a46fe" d="M32 32h1v1h-1z"/><path fill="#4c43fe" d="M33 32h1v1h-1z"/><path fill="#4e41fe" d="M34 32h1v1h-1z"/><path fill="#4f3efd" d="M35 32h1v1h-1z"/><path fill="#3820b1" d="M36 32h1v1h-1z"/><path fill="#242c91" d="M11 33h1v1h-1z"/><path fill="#2f7bf4" d="M12 33h1v1h-1z"/><path fill="#3180fe" d="M13 33h1v1h-1z"/><path fill="#327cfe" d="M14 33h1v1h-1z"/><path fill="#3378fe" d="M15 33h1v1h-1z"/><path fill="#3474fe" d="M16 33h1v1h-1z"/><path fill="#3570fe" d="M17 33h1v1h-1z"/><path fill="#376cfe" d="M18 33h1v1h-1z"/><path fill="#3868fe" d="M19 33h1v1h-1z"/><path fill="#3a64fe" d="M20 33h1v1h-1z"/><path fill="#3c5efc" d="M21 33h1v1h-1z"/><path fill="#3c52ee" d="M22 33h1v1h-1z"/><path fill="#3946dc" d="M23 33h1v1h-1z"/><path fill="#3b44dd" d="M24 33h1v1h-1z"/><path fill="#404aef" d="M25 33h1v1h-1z"/><path fill="#444efc" d="M26 33h1v1h-1z"/><path fill="#454dfe" d="M27 33h1v1h-1z"/><path fill="#464bfe" d="M28 33h1v1h-1z"/><path fill="#4749fe" d="M29 33h1v1h-1z"/><path fill="#4946fe" d="M30 33h1v1h-1z"/><path fill="#4a44fe" d="M31 33h1v1h-1z"/><path fill="#4c41fe" d="M32 33h1v1h-1z"/><path fill="#4f3efd" d="M33 33h1v1h-1z"/><path fill="#503cfe" d="M34 33h1v1h-1z"/><path fill="#4e36f6" d="M35 33h1v1h-1z"/><path fill="#301496" d="M36 33h1v1h-1z"/><path fill="#222d95" d="M12 34h1v1h-1z"/><path fill="#306dee" d="M13 34h1v1h-1z"/><path fill="#3374fe" d="M14 34h1v1h-1z"/><path fill="#3571fe" d="M15 34h1v1h-1z"/><path fill="#3467f5" d="M16 34h1v1h-1z"/><path fill="#304dd0" d="M17 34h1v1h-1z"/><path fill="#365ced" d="M18 34h1v1h-1z"/><path fill="#3b61fd" d="M19 34h1v1h-1z"/><path fill="#3d5cfd" d="M20 34h1v1h-1z"/><path fill="#3f58fd" d="M21 34h1v1h-1z"/><path fill="#4155fd" d="M22 34h1v1h-1z"/><path fill="#4251fd" d="M23 34h1v1h-1z"/><path fill="#444efd" d="M24 34h1v1h-1z"/><path fill="#464bfd" d="M25 34h1v1h-1z"/><path fill="#4649fe" d="M26 34h1v1h-1z"/><path fill="#4847fe" d="M27 34h1v1h-1z"/><path fill="#4945fe" d="M28 34h1v1h-1z"/><path fill="#443dec" d="M29 34h1v1h-1z"/><path fill="#3d31d0" d="M30 34h1v1h-1z"/><path fill="#4a3bf5" d="M31 34h1v1h-1z"/><path fill="#503bfe" d="M32 34h1v1h-1z"/><path fill="#5238fe" d="M33 34h1v1h-1z"/><path fill="#4f32f0" d="M34 34h1v1h-1z"/><path fill="#31169a" d="M35 34h1v1h-1z"/><path fill="#252b99" d="M13 35h1v1h-1z"/><path fill="#3567f6" d="M14 35h1v1h-1z"/><path fill="#345de8" d="M15 35h1v1h-1z"/><path fill="#23208a" d="M16 35h1v1h-1z"/><path fill="#1e1072" d="M18 35h1v1h-1z"/><path fill="#2f35b7" d="M19 35h1v1h-1z"/><path fill="#4052f5" d="M20 35h1v1h-1z"/><path fill="#4351fd" d="M21 35h1v1h-1z"/><path fill="#444efd" d="M22 35h1v1h-1z"/><path fill="#454bfd" d="M23 35h1v1h-1z"/><path fill="#4748fe" d="M24 35h1v1h-1z"/><path fill="#4845fe" d="M25 35h1v1h-1z"/><path fill="#4944fe" d="M26 35h1v1h-1z"/><path fill="#493ff6" d="M27 35h1v1h-1z"/><path fill="#3627b8" d="M28 35h1v1h-1z"/><path fill="#210b72" d="M29 35h1v1h-1z"/><path fill="#281288" d="M31 35h1v1h-1z"/><path fill="#4b30e6" d="M32 35h1v1h-1z"/><path fill="#5332f6" d="M33 35h1v1h-1z"/><path fill="#33169d" d="M34 35h1v1h-1z"/><path fill="#22167c" d="M14 36h1v1h-1z"/><path fill="#22117a" d="M20 36h1v1h-1z"/><path fill="#464bfe" d="M21 36h1v1h-1z"/><path fill="#4748fe" d="M22 36h1v1h-1z"/><path fill="#4845fe" d="M23 36h1v1h-1z"/><path fill="#4a42fe" d="M24 36h1v1h-1z"/><path fill="#4c40fe" d="M25 36h1v1h-1z"/><path fill="#4d3efd" d="M26 36h1v1h-1z"/><path fill="#240e79" d="M27 36h1v1h-1z"/><path fill="#280c7f" d="M33 36h1v1h-1z"/><path fill="#4641f1" d="M21 37h1v1h-1z"/><path fill="#4b42fe" d="M22 37h1v1h-1z"/><path fill="#4c3ffe" d="M23 37h1v1h-1z"/><path fill="#4e3dfe" d="M24 37h1v1h-1z"/><path fill="#503afd" d="M25 37h1v1h-1z"/><path fill="#4d35ef" d="M26 37h1v1h-1z"/><path fill="#3e2ecd" d="M21 38h1v1h-1z"/><path fill="#4e3dfd" d="M22 38h1v1h-1z"/><path fill="#503bfd" d="M23 38h1v1h-1z"/><path fill="#5238fe" d="M24 38h1v1h-1z"/><path fill="#5436fe" d="M25 38h1v1h-1z"/><path fill="#4327cd" d="M26 38h1v1h-1z"/><path fill="#21076e" d="M21 39h1v1h-1z"/><path fill="#311aa1" d="M22 39h1v1h-1z"/><path fill="#331aa3" d="M23 39h1v1h-1z"/><path fill="#3319a2" d="M24 39h1v1h-1z"/><path fill="#3318a0" d="M25 39h1v1h-1z"/><path fill="#23066e" d="M26 39h1v1h-1z"/></g></svg>